<svg id="Capa_1" enable-background="new 0 0 512 512" height="512" viewBox="0 0 512 512" width="512" xmlns="http://www.w3.org/2000/svg"><g><path d="m244.151 390.13h-141.134c-14.224 0-25.754-11.531-25.754-25.754v-5.151l178.737-48.174z" fill="#fa6f7c"/><path d="m292.278 87.259h-58.428c-17.068 0-30.905 13.837-30.905 30.905l104.017 33.511z" fill="#fc8d94"/><path d="m274.456 118.164h-96.421c-28.634 0-52.851 22.143-54.34 50.738-.02.375-.035.749-.047 1.123-.175 5.55-4.735 9.95-10.288 9.95h-7.444c-29.464 0-54.405 24.101-54.407 53.565 0 2.206.337 5.042.782 7.83.882 5.518-2.844 10.658-8.33 11.723-24.518 4.758-43.523 25.854-43.953 51.647-.501 30.005 23.671 54.485 53.561 54.485h8.241 17.513 164.828l132.377-29.978v-202.202z" fill="#faa4aa"/><path d="m411.105 202.767c25.637 1.836 45.866 23.216 45.866 49.321 0 0-.249 5.71-.724 8.457-1.129 6.519 2.583 12.824 8.715 15.307 16.011 6.482 19.259 22.265 19.032 40.654-.294 23.811-20.234 42.72-44.048 42.72h.969c-2.845 0-22.151 5.151-22.151 5.151 0 14.224-11.531 25.754-25.754 25.754h-9.785c-8.534 0-25.817 8.463-25.817 16.997 0 0 1.755 77.052-10.28 78.115-6.794.6-13.475 4.018-18.064-.126-4.697-4.242-7.649-10.38-7.649-17.208v-34.511c0-8.534-6.918-15.453-15.453-15.453h-41.207c-22.758 0-41.207-18.449-41.207-41.207v-34.718c0-22.758 18.449-41.207 41.207-41.207h93.349z" fill="#fc8d94"/><path d="m511.997 316.502c-.299 23.818-20.243 42.721-44.05 42.721h-27.032c-2.843 0-5.151 2.308-5.151 5.151 0 7.108-2.884 13.557-7.541 18.213-4.656 4.656-11.105 7.541-18.213 7.541h-26.785c-8.53 0-15.453 6.923-15.453 15.453v61.8c0 12.084-9.035 22.55-21.077 23.612-6.789.597-13.042-1.731-17.626-5.882 4.821-4.388 7.798-10.796 7.798-17.729v-61.8c0-8.53 6.923-15.453 15.453-15.453h26.785c7.108 0 13.557-2.885 18.213-7.541s7.541-11.105 7.541-18.213c0-2.843 2.308-5.151 5.151-5.151h27.032c23.807 0 43.752-18.904 44.05-42.721.227-18.389-11.023-34.171-27.032-40.651-6.14-2.483-9.848-8.787-8.715-15.308.474-2.751.721-5.573.721-8.458 0-16.885-8.458-31.781-21.366-40.702l6.408-8.612c25.631 1.834 45.863 23.21 45.863 49.314 0 2.884-.247 5.707-.721 8.458-1.133 6.521 2.575 12.826 8.715 15.308 16.009 6.479 27.258 22.262 27.032 40.65z" fill="#fa6f7c"/><path d="m328.626 263.419v-28.513c0-12.364-5.76-23.963-15.457-31.635-23.653-18.714-38.834-47.662-38.834-80.165 0-51.149 37.577-93.521 86.63-101.016 5.074-.775 33.13 7.84 33.13 7.84 56.44 0 65.121 38.49 65.121 94.93l.306 1.682c0 32.503-7.99 56.955-31.643 75.669-9.696 7.672-11.465 23.078-11.465 35.442l-1.769 26.691z" fill="#ffe07d"/><path d="m478.722 123.108c0 16.256-3.791 31.616-10.549 45.256-6.758 13.639-16.462 25.559-28.289 34.913-9.694 7.665-15.453 19.264-15.453 31.626v29.545l-30.905-.33 6.179-50.531c2.451-3.892 5.576-7.388 9.273-10.311 11.826-9.354 21.531-21.273 28.289-34.913s11.636-29.078 11.636-45.334c0-28.227-12.522-53.696-31.014-72.188-15.051-15.051-34.779-25.425-56.814-28.773 5.038-.762 10.199-1.154 15.453-1.154 28.227 0 53.775 11.435 72.267 29.927 18.492 18.491 29.927 44.04 29.927 72.267z" fill="#ffd064"/><path d="m344.593 280.932v27.815c0 5.689 4.612 10.302 10.302 10.302h14.267c5.689 0 10.302-4.612 10.302-10.302v-26.785z" fill="#e6d6d1"/><path d="m408.464 281.96v26.785c0 5.686-4.615 10.302-10.302 10.302h-30.905c5.687 0 10.302-4.615 10.302-10.302v-26.785z" fill="#d3c6c3"/><path d="m448.904 117.994c0-4.268-3.459-7.726-7.726-7.726s-7.726 3.459-7.726 7.726c0 31.387-25.536 56.922-56.923 56.922s-56.923-25.535-56.923-56.922c0-4.268-3.459-7.726-7.726-7.726s-7.726 3.459-7.726 7.726c0 31.801 20.626 58.858 49.196 68.546v67.608c0 4.268 3.459 7.726 7.726 7.726s7.726-3.459 7.726-7.726v-64.197c2.54.271 5.116.417 7.726.417s5.187-.146 7.726-.417v64.197c0 4.268 3.459 7.726 7.726 7.726s4.636-2.887 4.636-7.154l3.091-41.132v-27.048c28.571-9.688 49.197-36.745 49.197-68.546z" fill="#ffc269"/><path d="m399.708 213.588v40.558c0 3.739-2.658 6.851-6.181 7.572v-26.815c0-7.645 2.204-15 6.181-21.315z" fill="#ffa95f"/><path d="m396.947 288.143h-68.836c-5.69 0-10.302-4.612-10.302-10.302v-10.301c0-5.69 4.612-10.302 10.302-10.302h68.836c5.69 0 10.302 4.612 10.302 10.302v10.302c0 5.689-4.613 10.301-10.302 10.301z" fill="#fcf1f2"/><path d="m435.249 267.538v10.302c0 5.687-4.615 10.302-10.302 10.302h-30.905c5.687 0 10.302-4.615 10.302-10.302v-10.302c0-5.687-4.615-10.302-10.302-10.302h30.905c5.686 0 10.302 4.615 10.302 10.302z" fill="#f4e5e0"/><path d="m377.608 95.387c3.166 13.182 13.458 23.473 26.639 26.639 1.135.272 1.135 1.887 0 2.159-13.182 3.166-23.473 13.458-26.639 26.639-.273 1.135-1.887 1.135-2.159 0-3.166-13.182-13.458-23.473-26.639-26.639-1.135-.272-1.135-1.887 0-2.159 13.182-3.166 23.473-13.458 26.639-26.639.273-1.134 1.887-1.134 2.159 0z" fill="#fff"/><g fill="#fa6f7c"><path d="m254.453 228.185h-10.302c-26.982 0-48.933-21.952-48.933-48.933v-10.302c0-4.268 3.459-7.726 7.726-7.726s7.726 3.459 7.726 7.726v10.302c0 18.462 15.02 33.481 33.481 33.481h10.302c4.267 0 7.726 3.459 7.726 7.726s-3.459 7.726-7.726 7.726z"/><path d="m156.587 308.539c-4.267 0-7.726-3.459-7.726-7.726v-10.302c0-18.462-15.02-33.481-33.481-33.481h-10.302c-4.267 0-7.726-3.459-7.726-7.726s3.459-7.726 7.726-7.726h10.302c26.982 0 48.933 21.952 48.933 48.933v10.302c0 4.267-3.459 7.726-7.726 7.726z"/></g></g></svg>