<svg id="Capa_1" enable-background="new 0 0 511.7 511.7" height="512" viewBox="0 0 511.7 511.7" width="512" xmlns="http://www.w3.org/2000/svg"><g><path d="m382.994 176.812-14.024 10.051h-72.356l-10.068-10.051 16.073-96.437 14.219-10.051h31.222l17.081 10.051 3.829 20.699z" fill="#68748f"/><path d="m368.97 101.074-3.829-20.699-17.08-10.051h-31.222l-14.219 10.051-16.073 96.438 10.068 10.051 10.632-10.051 10.461-62.766c1.248-7.486 7.724-12.972 15.313-12.972h35.949z" fill="#5d6980"/><path d="m399.067 219.016h-128.593v-35.199c0-3.866 3.134-7 7-7h114.593c3.866 0 7 3.134 7 7z" fill="#77839e"/><path d="m301.522 176.812v42.207h-31.049v-35.171c0-3.886 3.15-7.036 7.036-7.036z" fill="#68748f"/><path d="m408.141 208.965h-146.741c-3.866 0-7 3.134-7 7v34.222c0 3.866 3.134 7 7 7h146.741c3.866 0 7-3.134 7-7v-34.222c0-3.866-3.134-7-7-7z" fill="#68748f"/><path d="m285.449 208.969v48.219h-24.013c-3.886 0-7.036-3.15-7.036-7.036v-34.148c0-3.886 3.15-7.036 7.036-7.036h24.013z" fill="#5d6980"/><path d="m478.543 304.59-130.841 102.257c-9.056 7.096-20.222 10.935-31.71 10.935h-146.943l-43.158-43.168-.834-17.8s7.93-16.695 23.65-33.399c15.719-16.695 39.218-33.389 70.366-33.389 11.88 0 23.67 2.201 34.756 6.493l24.655 9.528h48.817c10.855 0 19.75 8.362 20.584 19.006.06.543.08 1.096.08 1.659 0 0-.08 1.035-.231 2.312-.151 1.266-.372 2.784-.663 3.739l6.714-3.88 32.514-18.765 71.582-41.329c9.88-5.709 22.514-2.312 28.223 7.568 5.435 9.398 1.847 22.806-7.561 28.233z" fill="#ffcebf"/><path d="m482.959 272.235-65.616 37.89-75.489 44.054c-1.076.628-2.295.959-3.541.959-7.484 0-23.915 0-23.915 0s27.422-7.078 32.676-22.371l39.221-22.642 71.578-41.336c8.34-4.813 18.658-3.147 25.086 3.446z" fill="#ffb09e"/><path d="m179.757 323.424c-5.779 6.137-10.505 12.273-14.171 17.581-5.978 8.654-4.954 20.331 2.483 27.768l49.008 49.008h-31.049l-16.98.001-43.158-43.168-.831-17.802s7.928-16.694 23.649-33.388c15.711-16.694 39.215-33.388 70.357-33.388 5.371 0 10.733.445 16.001 1.335-23.774 4.275-42.238 18.164-55.309 32.053z" fill="#ffb09e"/><path d="m192.405 468.242 17.069-17.069c2.748-2.748 2.748-7.202 0-9.95l-101.962-101.961c-2.748-2.748-7.202-2.748-9.95 0l-17.069 17.069-1.808 20.125 91.791 91.791z" fill="#eaf6ff"/><path d="m202.754 457.896-10.35 10.35h-21.928l-91.791-91.791 1.809-20.12 17.07-17.07c2.748-2.748 7.202-2.748 9.95 0l5.375 5.375-6.572 6.572c-2.829 2.829-2.829 7.416 0 10.246z" fill="#d8ecfe"/><g><path d="m354.486 335.034c-3.679 12.031-14.604 20.102-27.188 20.102h-93.724c-4.282 0-7.759-3.478-7.759-7.759 0-4.292 3.478-7.759 7.759-7.759h93.724c5.719 0 10.674-3.668 12.342-9.126 1.105-3.608 4.613-5.83 8.242-5.438.06.543.08 1.096.08 1.659 0 0-.08 1.035-.231 2.312-.151 1.266-.372 2.784-.663 3.739l6.714-3.88c1.046 1.798 1.357 3.999.704 6.15z" fill="#ffb09e"/></g><path d="m254.4 32.15v-25.112c0-3.886 3.15-7.036 7.036-7.036h18.077c3.886 0 7.036 3.15 7.036 7.036v25.112h32.146v-25.112c0-3.886 3.15-7.036 7.036-7.036h18.079c3.886 0 7.036 3.15 7.036 7.036v25.112h33.098v-25.112c0-3.886 3.15-7.036 7.036-7.036h17.128c3.886 0 7.036 3.15 7.036 7.036v25.112l-30.06 45.089c-1.305 1.957-3.502 3.133-5.854 3.133h-88.914c-2.352 0-4.549-1.176-5.854-3.133z" fill="#77839e"/><path d="m275.099 32.146 32.146 48.229h-16.933c-2.353 0-4.55-1.176-5.854-3.134l-30.058-45.095v-25.11c0-3.886 3.15-7.036 7.036-7.036h13.664v32.146z" fill="#68748f"/><path d="m25.097 383.75 36.458-36.458c2.734-2.734 7.166-2.734 9.899 0l120.95 120.95-41.408 41.408c-2.734 2.734-7.166 2.734-9.899 0l-116-116c-2.734-2.734-2.734-7.166 0-9.9z" fill="#8ac9fe"/><path d="m156.398 504.252-5.375 5.375c-2.748 2.748-7.202 2.748-9.95 0l-115.953-115.953c-2.748-2.748-2.748-7.202 0-9.95l36.406-36.406c2.748-2.748 7.202-2.748 9.95 0l5.375 5.375-25.029 25.029c-6.063 6.063-6.063 15.892 0 21.955z" fill="#60b7ff"/><g><g><path d="m77.634 409.027c-1.961 0-3.924-.739-5.435-2.221l-16.074-15.764c-3.06-3.002-3.108-7.916-.107-10.976 3.001-3.062 7.916-3.109 10.977-.107l16.074 15.764c3.06 3.002 3.108 7.916.107 10.976-1.519 1.551-3.53 2.328-5.542 2.328z" fill="#68748f"/></g></g></g></svg>